<svg class="svg-icon" style="width: 1em; height: 1em;vertical-align: middle;fill: currentColor;overflow: hidden;" viewBox="0 0 1024 1024" version="1.1" xmlns="http://www.w3.org/2000/svg"><path d="M980.4 849.5H326.2c-13.6 0-25.3-7.8-31.7-20.4L17.2 537.5c-15.6-16.4-15.6-46.3 0-62.7L299.3 178c7.7-8.1 18.1-11.9 28.5-10.8h652.5c21 0 36.8 18.2 36.8 42.3v597.8c0 24-15.8 42.2-36.7 42.2z m-640.8-60h617.5V227.1H335.4l-265.2 279 269.4 283.4z" fill="#FFB178" /><path d="M395.929 710.279l446.534-446.534 42.426 42.426-446.534 446.534z" fill="#FFB178" /><path d="M395.999 306.162l42.426-42.426L884.958 710.27l-42.426 42.426z" fill="#FFB178" /></svg>