<svg class="svg-icon" style="width: 1em; height: 1em;vertical-align: middle;fill: currentColor;overflow: hidden;" viewBox="0 0 1024 1024" version="1.1" xmlns="http://www.w3.org/2000/svg"><path d="M810.666667 554.666667H213.333333v-85.333334h597.333334v85.333334m-298.666667-341.333334a85.333333 85.333333 0 0 1 85.333333 85.333334 85.333333 85.333333 0 0 1-85.333333 85.333333 85.333333 85.333333 0 0 1-85.333333-85.333333 85.333333 85.333333 0 0 1 85.333333-85.333334m0 426.666667a85.333333 85.333333 0 0 1 85.333333 85.333333 85.333333 85.333333 0 0 1-85.333333 85.333334 85.333333 85.333333 0 0 1-85.333333-85.333334 85.333333 85.333333 0 0 1 85.333333-85.333333z" fill="#FFB178" /></svg>